PathFileType	4	(X/Y/Z)	C:\Users\86182\Documents\cortex\Trimmed_M1_L9.trc
DataRate	CameraRate	NumFrames	NumMarkers	Units	OrigDataRate	OrigDataStartFrame	OrigNumFrames
100.00	100.00	       169	2	mm	100.00	361	       901
Frame#	Time	gripper			box			
		X1	Y1	Z1	X2	Y2	Z2	

361	3.600	198.49687	195.01387	293.07071	198.45891	194.79465	150.34558	
362	3.610	198.53810	195.01190	293.07312	198.49400	194.80664	150.35936	
363	3.620	198.56020	194.99977	293.08469	198.50070	194.78429	150.42575	
364	3.630	198.53471	194.99780	293.09567	198.50243	194.79279	150.44627	
365	3.640	198.63150	194.98650	293.07892	198.52855	194.83531	150.44835	
366	3.650	198.60941	194.98218	293.09641	198.52748	194.80499	150.42886	
367	3.660	198.70361	194.97482	293.06949	198.55466	194.80046	150.36316	
368	3.670	198.64201	194.99248	293.07123	198.51048	194.78998	150.32013	
369	3.680	198.60271	195.00804	293.05997	198.54430	194.78680	150.30525	
370	3.690	198.53810	195.01190	293.07312	198.53336	194.78854	150.30040	
371	3.700	198.52744	195.01387	293.06799	198.53288	194.79745	150.30426	
372	3.710	198.53810	195.01190	293.07312	198.52573	194.79498	150.30571	
373	3.720	198.53810	195.01190	293.07312	198.49745	194.79770	150.31865	
374	3.730	198.56703	195.01173	293.06494	198.48186	194.79063	150.35176	
375	3.740	198.54649	195.01149	293.07138	198.51465	194.80807	150.38628	
376	3.750	198.53864	195.00357	293.08591	198.51489	194.80638	150.38338	
377	3.760	198.53264	195.00433	293.08636	198.51189	194.80768	150.40192	
378	3.770	198.51849	195.00908	293.08356	198.52435	194.80597	150.36537	
379	3.780	198.53810	195.01190	293.07312	198.51239	194.79732	150.33783	
380	3.790	198.52826	195.01048	293.07837	198.48970	194.78946	150.33220	
381	3.800	198.53548	195.01239	293.07187	198.52962	194.79684	150.30638	
382	3.810	198.53810	195.01190	293.07312	198.51830	194.79764	150.31007	
383	3.820	198.53810	195.01190	293.07312	198.49637	194.79070	150.32787	
384	3.830	198.53810	195.01190	293.07312	198.48949	194.79430	150.32623	
385	3.840	198.54535	195.01186	293.07108	198.53471	194.80896	150.36461	
386	3.850	198.51607	195.00871	293.08487	198.51945	194.80560	150.37152	
387	3.860	198.54950	195.00343	293.08270	198.51283	194.80779	150.39668	
388	3.870	198.58437	194.99757	293.08057	198.51173	194.79726	150.39490	
389	3.880	198.56645	195.00240	293.07874	198.51611	194.82069	150.40457	
390	3.890	198.55931	195.00478	293.07733	198.50511	194.80974	150.38301	
391	3.900	198.53810	195.01190	293.07312	198.48721	194.80991	150.37585	
392	3.910	198.54517	195.00954	293.07452	198.47018	194.80579	150.34834	
393	3.920	198.53810	195.01190	293.07312	198.50922	194.80762	150.30135	
394	3.930	198.52744	195.01387	293.06799	198.48338	194.79414	150.32895	
395	3.940	198.53810	195.01190	293.07312	198.48318	194.79898	150.32297	
396	3.950	198.53810	195.01190	293.07312	198.46704	194.79213	150.33826	
397	3.960	198.53810	195.01190	293.07312	198.42853	194.79857	150.35686	
398	3.970	198.49910	195.00627	293.09390	198.49066	194.80336	150.36087	
399	3.980	198.54350	195.00420	293.08319	198.50829	194.79588	150.39777	
400	3.990	198.53810	195.01190	293.07312	198.51627	194.81235	150.38495	
401	4.000	198.53564	195.01155	293.07443	198.50252	194.80458	150.39026	
402	4.010	198.53531	195.00812	293.07977	198.51486	194.80048	150.35089	
403	4.020	198.55931	195.00478	293.07733	198.53635	194.81155	150.36926	
404	4.030	198.53810	195.01190	293.07312	198.49251	194.81383	150.36874	
405	4.040	198.54172	195.01189	293.07211	198.50310	194.79195	150.32353	
406	4.050	198.53810	195.01190	293.07312	198.50639	194.79256	150.32140	
407	4.060	198.54897	195.01184	293.07007	198.51939	194.79968	150.33916	
408	4.070	198.55621	195.01180	293.06802	198.51183	194.79514	150.32658	
409	4.080	198.55621	195.01180	293.06802	198.51117	194.80460	150.37984	
410	4.090	198.53810	195.01190	293.07312	198.51518	194.80438	150.36516	
411	4.100	198.56316	195.00269	293.07657	198.50909	194.80708	150.37651	
412	4.110	198.52826	195.01048	293.07837	198.49814	194.79642	150.39767	
413	4.120	198.52582	195.01013	293.07968	198.50565	194.80197	150.37451	
414	4.130	198.51849	195.00908	293.08356	198.47339	194.79916	150.36615	
415	4.140	198.53073	195.01083	293.07706	198.47246	194.79691	150.36212	
416	4.150	198.53810	195.01190	293.07312	198.47197	194.79010	150.33876	
417	4.160	198.53320	195.01118	293.07574	198.44382	194.79590	150.35739	
418	4.170	198.53810	195.01190	293.07312	198.46475	194.80545	150.36183	
419	4.180	198.53810	195.01190	293.07312	198.43379	194.79297	150.35103	
420	4.190	198.53564	195.01155	293.07443	198.47226	194.80177	150.35611	
421	4.200	198.53073	195.01083	293.07706	198.46037	194.79474	150.35686	
422	4.210	198.53810	195.01190	293.07312	198.51881	194.80331	150.36009	
423	4.220	198.53810	195.01190	293.07312	198.53572	194.80753	150.37207	
424	4.230	198.53810	195.01190	293.07312	198.52112	194.81104	150.38480	
425	4.240	198.53810	195.01190	293.07312	198.50566	194.80409	150.38229	
426	4.250	198.53810	195.01190	293.07312	198.52702	194.80431	150.35184	
427	4.260	198.53810	195.01190	293.07312	198.52023	194.81384	150.34991	
428	4.270	198.53810	195.01190	293.07312	198.51993	194.80917	150.33788	
429	4.280	198.53810	195.01190	293.07312	198.50626	194.80089	150.32167	
430	4.290	198.53810	195.01190	293.07312	198.49887	194.80211	150.33391	
431	4.300	198.53810	195.01190	293.07312	198.51634	194.80022	150.34698	
432	4.310	198.53810	195.01190	293.07312	198.52463	194.80589	150.35806	
433	4.320	198.53810	195.01190	293.07312	198.50899	194.80260	150.37234	
434	4.330	198.53810	195.01190	293.07312	198.50354	194.80235	150.36041	
435	4.340	198.53810	195.01190	293.07312	198.50749	194.80286	150.37628	
436	4.350	198.52826	195.01048	293.07837	198.45276	194.80383	150.37247	
437	4.360	198.52339	195.00978	293.08096	198.49364	194.79805	150.36630	
438	4.370	198.52544	195.01181	293.07449	198.46034	194.80017	150.36670	
439	4.380	198.52206	195.01488	293.06543	198.47580	194.79666	150.32895	
440	4.390	198.53810	195.01190	293.07312	198.46353	194.78905	150.34709	
441	4.400	198.51131	195.01686	293.06027	198.49033	194.80339	150.36821	
442	4.410	198.53810	195.01190	293.07312	198.47725	194.79024	150.35060	
443	4.420	198.53281	195.01288	293.07056	198.49030	194.79601	150.36983	
444	4.430	198.55261	195.01183	293.06903	198.50565	194.80197	150.37451	
445	4.440	198.54274	195.01041	293.07428	198.50162	194.79907	150.36531	
446	4.450	198.57004	195.00119	293.07947	198.51489	194.80638	150.38338	
447	4.460	198.53799	195.01080	293.07501	198.50557	194.79283	150.39185	
448	4.470	198.56340	195.01175	293.06598	198.51422	194.80411	150.37192	
449	4.480	198.55244	195.01071	293.07092	198.51361	194.80270	150.38800	
450	4.490	198.51759	195.01245	293.07324	198.51466	194.80409	150.33199	
451	4.500	198.51007	195.01224	293.07455	198.47260	194.79338	150.35576	
452	4.510	198.50885	195.01651	293.06161	198.50089	194.80170	150.34796	
453	4.520	198.50049	195.01886	293.05508	198.47794	194.80325	150.34830	
454	4.530	198.53035	195.01251	293.07187	198.47432	194.79781	150.36386	
455	4.540	198.50885	195.01651	293.06161	198.47530	194.79643	150.36154	
456	4.550	198.48740	195.01161	293.07849	198.47536	194.79291	150.35518	
457	4.560	198.52077	195.01025	293.07968	198.49921	194.80785	150.38440	
458	4.570	198.52339	195.00978	293.08096	198.48448	194.79727	150.36391	
459	4.580	198.50859	195.00850	293.08618	198.50317	194.79927	150.37506	
460	4.590	198.49925	195.01314	293.07126	198.47606	194.80222	150.37199	
461	4.600	198.52478	195.01437	293.06674	198.46605	194.79564	150.35918	
462	4.610	198.53810	195.01190	293.07312	198.50011	194.79933	150.36925	
463	4.620	198.54897	195.01184	293.07007	198.47536	194.79291	150.35518	
464	4.630	198.54025	195.01669	293.05212	198.51828	194.80348	150.34209	
465	4.640	198.57419	195.01169	293.06293	198.52182	194.80281	150.35225	
466	4.650	198.53831	195.01381	293.06494	198.49773	194.79625	150.35609	
467	4.660	198.53012	195.01338	293.06931	198.51489	194.80638	150.38338	
468	4.670	198.57060	195.01172	293.06393	198.53511	194.81012	150.37030	
469	4.680	198.59212	195.01160	293.05786	198.52126	194.80058	150.34090	
470	4.690	198.53468	195.01382	293.06598	198.51489	194.80638	150.38338	
471	4.700	198.53670	195.01089	293.07028	198.51331	194.80070	150.35481	
472	4.710	198.51515	195.01210	293.07455	198.51741	194.81076	150.37685	
473	4.720	198.51051	195.01056	293.07974	198.51213	194.80095	150.35143	
474	4.730	198.48254	195.01091	293.08105	198.44783	194.79059	150.34818	
475	4.740	198.50273	195.01118	293.07846	198.47606	194.80222	150.37199	
476	4.750	198.51810	195.01074	293.07840	198.45143	194.79230	150.35162	
477	4.760	198.51100	195.00885	293.08490	198.45596	194.79404	150.34047	
478	4.770	198.50687	195.01443	293.06808	198.48404	194.79941	150.37900	
479	4.780	198.52582	195.01013	293.07968	198.48730	194.79321	150.35698	
480	4.790	198.52544	195.01181	293.07449	198.46942	194.80811	150.38187	
481	4.800	198.50107	195.00829	293.08749	198.50662	194.80415	150.38838	
482	4.810	198.52478	195.01437	293.06674	198.46701	194.79433	150.35689	
483	4.820	198.53281	195.01288	293.07056	198.47408	194.78783	150.34052	
484	4.830	198.53012	195.01338	293.06931	198.49464	194.79173	150.35896	
485	4.840	198.53281	195.01288	293.07056	198.49910	194.79375	150.33359	
486	4.850	198.51027	195.01527	293.06448	198.52525	194.80627	150.35712	
487	4.860	198.53281	195.01288	293.07056	198.55844	194.81442	150.35521	
488	4.870	198.54172	195.01189	293.07211	198.51605	194.79907	150.34132	
489	4.880	198.53548	195.01239	293.07187	198.50656	194.79945	150.35918	
490	4.890	198.55373	195.01144	293.06931	198.48547	194.79234	150.35524	
491	4.900	198.53810	195.01190	293.07312	198.48755	194.79362	150.36336	
492	4.910	198.52826	195.01048	293.07837	198.49228	194.79926	150.36801	
493	4.920	198.53810	195.01190	293.07312	198.49644	194.79758	150.36572	
494	4.930	198.52095	195.00943	293.08228	198.48643	194.79697	150.35265	
495	4.940	198.52582	195.01013	293.07968	198.45341	194.78964	150.34705	
496	4.950	198.52826	195.01048	293.07837	198.47263	194.80536	150.35510	
497	4.960	198.51849	195.00908	293.08356	198.47363	194.80043	150.34647	
498	4.970	198.53810	195.01190	293.07312	198.48590	194.79828	150.34763	
499	4.980	198.53810	195.01190	293.07312	198.47934	194.79816	150.35770	
500	4.990	198.53810	195.01190	293.07312	198.50055	194.79463	150.34258	
501	5.000	198.53320	195.01118	293.07574	198.51395	194.79710	150.33392	
502	5.010	198.53810	195.01190	293.07312	198.50262	194.79659	150.35001	
503	5.020	198.53810	195.01190	293.07312	198.48730	194.79321	150.35698	
504	5.030	198.53810	195.01190	293.07312	198.51770	194.80801	150.36089	
505	5.040	198.55968	195.00946	293.07043	198.51973	194.80084	150.34480	
506	5.050	198.53810	195.01190	293.07312	198.51486	194.80048	150.35089	
507	5.060	198.57060	195.01172	293.06393	198.48004	194.78976	150.35004	
508	5.070	198.53810	195.01190	293.07312	198.49847	194.79266	150.33522	
509	5.080	198.53810	195.01190	293.07312	198.50752	194.79695	150.34390	
510	5.090	198.53810	195.01190	293.07312	198.50378	194.80107	150.37276	
511	5.100	198.53810	195.01190	293.07312	198.50354	194.80235	150.36041	
512	5.110	198.53810	195.01190	293.07312	198.51761	194.80472	150.36974	
513	5.120	198.53810	195.01190	293.07312	198.48730	194.79321	150.35698	
514	5.130	198.53810	195.01190	293.07312	198.50180	194.79327	150.33305	
515	5.140	198.53810	195.01190	293.07312	198.48186	194.79063	150.35176	
516	5.150	198.53810	195.01190	293.07312	198.49709	194.80717	150.33185	
517	5.160	198.53810	195.01190	293.07312	198.47534	194.79073	150.33658	
518	5.170	198.52826	195.01048	293.07837	198.45122	194.79582	150.35799	
519	5.180	198.53810	195.01190	293.07312	198.47958	194.78760	150.33873	
520	5.190	198.53810	195.01190	293.07312	198.52081	194.80783	150.33559	
521	5.200	198.52582	195.01013	293.07968	198.48022	194.79462	150.33676	
522	5.210	198.52826	195.01048	293.07837	198.48897	194.79190	150.34012	
523	5.220	198.53320	195.01118	293.07574	198.50656	194.79945	150.35918	
524	5.230	198.53073	195.01083	293.07706	198.46948	194.79626	150.35698	
525	5.240	198.53810	195.01190	293.07312	198.52086	194.79942	150.33527	
526	5.250	198.53810	195.01190	293.07312	198.50565	194.80197	150.37451	
527	5.260	198.53810	195.01190	293.07312	198.50569	194.79608	150.34216	
528	5.270	198.53810	195.01190	293.07312	198.50839	194.80032	150.36093	
529	5.280	198.53810	195.01190	293.07312	198.49692	194.79288	150.33913	
